<?xml version='1.0' encoding='UTF-8'?>
<!DOCTYPE svg PUBLIC "-//W3C//DTD SVG 1.0//EN" "http://www.w3.org/TR/2001/REC-SVG-20010904/DTD/svg10.dtd">
<svg viewBox="0 0 896 1000" xmlns="http://www.w3.org/2000/svg" xmlns:inkspace="http://www.inkscape.org/namespaces/inkscape" xmlns:xlink="http://www.w3.org/1999/xlink">
  <defs id="defs_block">
    <filter height="1.504" id="filter_blur" inkspace:collect="always" width="1.1575" x="-0.07875" y="-0.252">
      <feGaussianBlur id="feGaussianBlur3780" inkspace:collect="always" stdDeviation="4.2" />
    </filter>
  </defs>
  <title>blockdiag</title>
  <desc>{
    colwidth = 32

    // ISO on TCP
    * ISO on TCP Magic Number (0x03) [len = 8, color = "#068D9D"]
    * Reserved (0x00) [len = 8, color = "#068D9D"]
    * Packet Length (including ISO on TCP header) [len = 16, color = "#068D9D"]

    // ISO Transport Protocol
    * ISO TP Header Length\n(excluding length byte) [len = 8, color = "#53599A"]
    * TPDU-Code\n(Data = 0xF0) [len = 4, color = "#AEECEF"]
    * Signal CDT\n(0x00) [len = 4, color = "#53599A"]
    * TPDU-NR/EOT [len = 8, color = "#53599A"]

    // S7 Comm Plus
    * S7 Comm Plus Protocol Magic Byte\n(0x72) [len = 8, color = "#6D9DC5"]
    * Version (0x01) [len = 8, color = "#6D9DC5"]
    * Length\n(including length bytes excluding frame boundary) [len = 16, color = "#6D9DC5"]
    * Type [len = 8, color = "#6D9DC5"]
    * Reserved (0x0000) [len = 16, color = "#6D9DC5"]
    * Sub-Type [len = 16, color = "#6D9DC5"]
    * Sequence Number [len = 32, color = "#6D9DC5"]
    // Undocumented constant sequence
    * 00 00 01 20 [len = 32]
    * 36 00 00 01 [len = 32]
    * 1d 00 04 00 [len = 32]
    * 00 00 00 00 [len = 32]
    * a1 00 00 00 [len = 32]
    * d3 82 1f 00 [len = 32]
    * 00 [len = 8]

    // Parameters
    * Attribute Block Magic Byte\n(0xA3) [len = 8, color = "#00FF80"]
    * Attribute Id (Type) [len = 8, color = "#00FF80"]
    * Format [len = 8, color = "#00FF80"]
    * Data Type [len = 8, color = "#00FF80"]
    * Length [len = 8, color = "#00FF80"]
    * Attribute Value [len = 56, color = "#00FF80"]

    // Parameters
    * Attribute Block Magic Byte\n(0xA3) [len = 8, color = "#0080FF"]
    * Attribute Id (Type) [len = 8, color = "#0080FF"]
    * Format [len = 8, color = "#0080FF"]
    * Data Type [len = 8, color = "#0080FF"]
    * Length [len = 8, color = "#0080FF"]
    * Attribute Value [len = 56, color = "#0080FF"]

    // Parameters
    * Attribute Block Magic Byte\n(0xA3) [len = 8, color = "#00FF80"]
    * Attribute Id (Type) [len = 8, color = "#00FF80"]
    * Format [len = 8, color = "#00FF80"]
    * Data Type [len = 8, color = "#00FF80"]
    * Length [len = 8, color = "#00FF80"]
    * Attribute Value [len = 56, color = "#00FF80"]

    // Frame End
    * Reserved (0x0000) [len = 16, color = "#FF3399"]
    * S7 Comm Plus Protocol Magic Byte\n(0x72) [len = 8, color = "#FF3399"]
    * Version (0x01) [len = 8, color = "#FF3399"]
    * Reserved (0x0000) [len = 16, color = "#FF3399"]

}</desc>
  <path d="M 64 48 L 64 80" fill="none" stroke="rgb(0,0,0)" />
  <text fill="rgb(0,0,0)" font-family="sans-serif" font-size="11" font-style="normal" font-weight="normal" text-anchor="middle" textLength="6" x="64" y="42">0</text>
  <path d="M 88 64 L 88 80" fill="none" stroke="rgb(0,0,0)" />
  <path d="M 112 64 L 112 80" fill="none" stroke="rgb(0,0,0)" />
  <path d="M 136 64 L 136 80" fill="none" stroke="rgb(0,0,0)" />
  <path d="M 160 64 L 160 80" fill="none" stroke="rgb(0,0,0)" />
  <path d="M 184 64 L 184 80" fill="none" stroke="rgb(0,0,0)" />
  <path d="M 208 64 L 208 80" fill="none" stroke="rgb(0,0,0)" />
  <path d="M 232 64 L 232 80" fill="none" stroke="rgb(0,0,0)" />
  <path d="M 256 48 L 256 80" fill="none" stroke="rgb(0,0,0)" />
  <path d="M 280 64 L 280 80" fill="none" stroke="rgb(0,0,0)" />
  <path d="M 304 64 L 304 80" fill="none" stroke="rgb(0,0,0)" />
  <path d="M 328 64 L 328 80" fill="none" stroke="rgb(0,0,0)" />
  <path d="M 352 64 L 352 80" fill="none" stroke="rgb(0,0,0)" />
  <path d="M 376 64 L 376 80" fill="none" stroke="rgb(0,0,0)" />
  <path d="M 400 64 L 400 80" fill="none" stroke="rgb(0,0,0)" />
  <path d="M 424 64 L 424 80" fill="none" stroke="rgb(0,0,0)" />
  <path d="M 448 48 L 448 80" fill="none" stroke="rgb(0,0,0)" />
  <text fill="rgb(0,0,0)" font-family="sans-serif" font-size="11" font-style="normal" font-weight="normal" text-anchor="middle" textLength="12" x="448" y="42">16</text>
  <path d="M 472 64 L 472 80" fill="none" stroke="rgb(0,0,0)" />
  <path d="M 496 64 L 496 80" fill="none" stroke="rgb(0,0,0)" />
  <path d="M 520 64 L 520 80" fill="none" stroke="rgb(0,0,0)" />
  <path d="M 544 64 L 544 80" fill="none" stroke="rgb(0,0,0)" />
  <path d="M 568 64 L 568 80" fill="none" stroke="rgb(0,0,0)" />
  <path d="M 592 64 L 592 80" fill="none" stroke="rgb(0,0,0)" />
  <path d="M 616 64 L 616 80" fill="none" stroke="rgb(0,0,0)" />
  <path d="M 640 48 L 640 80" fill="none" stroke="rgb(0,0,0)" />
  <path d="M 664 64 L 664 80" fill="none" stroke="rgb(0,0,0)" />
  <path d="M 688 64 L 688 80" fill="none" stroke="rgb(0,0,0)" />
  <path d="M 712 64 L 712 80" fill="none" stroke="rgb(0,0,0)" />
  <path d="M 736 64 L 736 80" fill="none" stroke="rgb(0,0,0)" />
  <path d="M 760 64 L 760 80" fill="none" stroke="rgb(0,0,0)" />
  <path d="M 784 64 L 784 80" fill="none" stroke="rgb(0,0,0)" />
  <path d="M 808 64 L 808 80" fill="none" stroke="rgb(0,0,0)" />
  <path d="M 832 48 L 832 80" fill="none" stroke="rgb(0,0,0)" />
  <text fill="rgb(0,0,0)" font-family="sans-serif" font-size="11" font-style="normal" font-weight="normal" text-anchor="middle" textLength="12" x="832" y="42">32</text>
  <rect fill="rgb(6,141,157)" height="40" stroke="rgb(6,141,157)" width="192" x="64" y="80" />
  <path d="M 64 80 L 256 80" fill="none" stroke="rgb(0,0,0)" />
  <path d="M 256 80 L 256 120" fill="none" stroke="rgb(0,0,0)" />
  <path d="M 256 120 L 64 120" fill="none" stroke="rgb(0,0,0)" />
  <path d="M 64 120 L 64 80" fill="none" stroke="rgb(0,0,0)" />
  <text fill="rgb(0,0,0)" font-family="sans-serif" font-size="11" font-style="normal" font-weight="normal" text-anchor="middle" textLength="180" x="160" y="106">ISO on TCP Magic Number (0x03)</text>
  <rect fill="rgb(6,141,157)" height="40" stroke="rgb(6,141,157)" width="192" x="256" y="80" />
  <path d="M 256 80 L 448 80" fill="none" stroke="rgb(0,0,0)" />
  <path d="M 448 80 L 448 120" fill="none" stroke="rgb(0,0,0)" />
  <path d="M 448 120 L 256 120" fill="none" stroke="rgb(0,0,0)" />
  <path d="M 256 120 L 256 80" fill="none" stroke="rgb(0,0,0)" />
  <text fill="rgb(0,0,0)" font-family="sans-serif" font-size="11" font-style="normal" font-weight="normal" text-anchor="middle" textLength="90" x="352" y="106">Reserved (0x00)</text>
  <rect fill="rgb(6,141,157)" height="40" stroke="rgb(6,141,157)" width="384" x="448" y="80" />
  <path d="M 448 80 L 832 80" fill="none" stroke="rgb(0,0,0)" />
  <path d="M 832 80 L 832 120" fill="none" stroke="rgb(0,0,0)" />
  <path d="M 832 120 L 448 120" fill="none" stroke="rgb(0,0,0)" />
  <path d="M 448 120 L 448 80" fill="none" stroke="rgb(0,0,0)" />
  <text fill="rgb(0,0,0)" font-family="sans-serif" font-size="11" font-style="normal" font-weight="normal" text-anchor="middle" textLength="258" x="640" y="106">Packet Length (including ISO on TCP header)</text>
  <rect fill="rgb(83,89,154)" height="40" stroke="rgb(83,89,154)" width="192" x="64" y="120" />
  <path d="M 64 120 L 256 120" fill="none" stroke="rgb(0,0,0)" />
  <path d="M 256 120 L 256 160" fill="none" stroke="rgb(0,0,0)" />
  <path d="M 256 160 L 64 160" fill="none" stroke="rgb(0,0,0)" />
  <path d="M 64 160 L 64 120" fill="none" stroke="rgb(0,0,0)" />
  <text fill="rgb(0,0,0)" font-family="sans-serif" font-size="11" font-style="normal" font-weight="normal" text-anchor="middle" textLength="120" x="160" y="139">ISO TP Header Length</text>
  <text fill="rgb(0,0,0)" font-family="sans-serif" font-size="11" font-style="normal" font-weight="normal" text-anchor="middle" textLength="138" x="160" y="152">(excluding length byte)</text>
  <rect fill="rgb(174,236,239)" height="40" stroke="rgb(174,236,239)" width="96" x="256" y="120" />
  <path d="M 256 120 L 352 120" fill="none" stroke="rgb(0,0,0)" />
  <path d="M 352 120 L 352 160" fill="none" stroke="rgb(0,0,0)" />
  <path d="M 352 160 L 256 160" fill="none" stroke="rgb(0,0,0)" />
  <path d="M 256 160 L 256 120" fill="none" stroke="rgb(0,0,0)" />
  <text fill="rgb(0,0,0)" font-family="sans-serif" font-size="11" font-style="normal" font-weight="normal" text-anchor="middle" textLength="54" x="304" y="139">TPDU-Code</text>
  <text fill="rgb(0,0,0)" font-family="sans-serif" font-size="11" font-style="normal" font-weight="normal" text-anchor="middle" textLength="78" x="304" y="152">(Data = 0xF0)</text>
  <rect fill="rgb(83,89,154)" height="40" stroke="rgb(83,89,154)" width="96" x="352" y="120" />
  <path d="M 352 120 L 448 120" fill="none" stroke="rgb(0,0,0)" />
  <path d="M 448 120 L 448 160" fill="none" stroke="rgb(0,0,0)" />
  <path d="M 448 160 L 352 160" fill="none" stroke="rgb(0,0,0)" />
  <path d="M 352 160 L 352 120" fill="none" stroke="rgb(0,0,0)" />
  <text fill="rgb(0,0,0)" font-family="sans-serif" font-size="11" font-style="normal" font-weight="normal" text-anchor="middle" textLength="60" x="400" y="139">Signal CDT</text>
  <text fill="rgb(0,0,0)" font-family="sans-serif" font-size="11" font-style="normal" font-weight="normal" text-anchor="middle" textLength="36" x="400" y="152">(0x00)</text>
  <rect fill="rgb(83,89,154)" height="40" stroke="rgb(83,89,154)" width="192" x="448" y="120" />
  <path d="M 448 120 L 640 120" fill="none" stroke="rgb(0,0,0)" />
  <path d="M 640 120 L 640 160" fill="none" stroke="rgb(0,0,0)" />
  <path d="M 640 160 L 448 160" fill="none" stroke="rgb(0,0,0)" />
  <path d="M 448 160 L 448 120" fill="none" stroke="rgb(0,0,0)" />
  <text fill="rgb(0,0,0)" font-family="sans-serif" font-size="11" font-style="normal" font-weight="normal" text-anchor="middle" textLength="66" x="544" y="146">TPDU-NR/EOT</text>
  <rect fill="rgb(109,157,197)" height="40" stroke="rgb(109,157,197)" width="192" x="640" y="120" />
  <path d="M 640 120 L 832 120" fill="none" stroke="rgb(0,0,0)" />
  <path d="M 832 120 L 832 160" fill="none" stroke="rgb(0,0,0)" />
  <path d="M 832 160 L 640 160" fill="none" stroke="rgb(0,0,0)" />
  <path d="M 640 160 L 640 120" fill="none" stroke="rgb(0,0,0)" />
  <text fill="rgb(0,0,0)" font-family="sans-serif" font-size="11" font-style="normal" font-weight="normal" text-anchor="middle" textLength="192" x="736" y="139">S7 Comm Plus Protocol Magic Byte</text>
  <text fill="rgb(0,0,0)" font-family="sans-serif" font-size="11" font-style="normal" font-weight="normal" text-anchor="middle" textLength="36" x="736" y="152">(0x72)</text>
  <rect fill="rgb(109,157,197)" height="40" stroke="rgb(109,157,197)" width="192" x="64" y="160" />
  <path d="M 64 160 L 256 160" fill="none" stroke="rgb(0,0,0)" />
  <path d="M 256 160 L 256 200" fill="none" stroke="rgb(0,0,0)" />
  <path d="M 256 200 L 64 200" fill="none" stroke="rgb(0,0,0)" />
  <path d="M 64 200 L 64 160" fill="none" stroke="rgb(0,0,0)" />
  <text fill="rgb(0,0,0)" font-family="sans-serif" font-size="11" font-style="normal" font-weight="normal" text-anchor="middle" textLength="84" x="160" y="186">Version (0x01)</text>
  <rect fill="rgb(109,157,197)" height="40" stroke="rgb(109,157,197)" width="384" x="256" y="160" />
  <path d="M 256 160 L 640 160" fill="none" stroke="rgb(0,0,0)" />
  <path d="M 640 160 L 640 200" fill="none" stroke="rgb(0,0,0)" />
  <path d="M 640 200 L 256 200" fill="none" stroke="rgb(0,0,0)" />
  <path d="M 256 200 L 256 160" fill="none" stroke="rgb(0,0,0)" />
  <text fill="rgb(0,0,0)" font-family="sans-serif" font-size="11" font-style="normal" font-weight="normal" text-anchor="middle" textLength="36" x="448" y="179">Length</text>
  <text fill="rgb(0,0,0)" font-family="sans-serif" font-size="11" font-style="normal" font-weight="normal" text-anchor="middle" textLength="294" x="448" y="192">(including length bytes excluding frame boundary)</text>
  <rect fill="rgb(109,157,197)" height="40" stroke="rgb(109,157,197)" width="192" x="640" y="160" />
  <path d="M 640 160 L 832 160" fill="none" stroke="rgb(0,0,0)" />
  <path d="M 832 160 L 832 200" fill="none" stroke="rgb(0,0,0)" />
  <path d="M 832 200 L 640 200" fill="none" stroke="rgb(0,0,0)" />
  <path d="M 640 200 L 640 160" fill="none" stroke="rgb(0,0,0)" />
  <text fill="rgb(0,0,0)" font-family="sans-serif" font-size="11" font-style="normal" font-weight="normal" text-anchor="middle" textLength="24" x="736" y="186">Type</text>
  <rect fill="rgb(109,157,197)" height="40" stroke="rgb(109,157,197)" width="384" x="64" y="200" />
  <path d="M 64 200 L 448 200" fill="none" stroke="rgb(0,0,0)" />
  <path d="M 448 200 L 448 240" fill="none" stroke="rgb(0,0,0)" />
  <path d="M 448 240 L 64 240" fill="none" stroke="rgb(0,0,0)" />
  <path d="M 64 240 L 64 200" fill="none" stroke="rgb(0,0,0)" />
  <text fill="rgb(0,0,0)" font-family="sans-serif" font-size="11" font-style="normal" font-weight="normal" text-anchor="middle" textLength="102" x="256" y="226">Reserved (0x0000)</text>
  <rect fill="rgb(109,157,197)" height="40" stroke="rgb(109,157,197)" width="384" x="448" y="200" />
  <path d="M 448 200 L 832 200" fill="none" stroke="rgb(0,0,0)" />
  <path d="M 832 200 L 832 240" fill="none" stroke="rgb(0,0,0)" />
  <path d="M 832 240 L 448 240" fill="none" stroke="rgb(0,0,0)" />
  <path d="M 448 240 L 448 200" fill="none" stroke="rgb(0,0,0)" />
  <text fill="rgb(0,0,0)" font-family="sans-serif" font-size="11" font-style="normal" font-weight="normal" text-anchor="middle" textLength="48" x="640" y="226">Sub-Type</text>
  <rect fill="rgb(109,157,197)" height="40" stroke="rgb(109,157,197)" width="768" x="64" y="240" />
  <path d="M 64 240 L 832 240" fill="none" stroke="rgb(0,0,0)" />
  <path d="M 832 240 L 832 280" fill="none" stroke="rgb(0,0,0)" />
  <path d="M 832 280 L 64 280" fill="none" stroke="rgb(0,0,0)" />
  <path d="M 64 280 L 64 240" fill="none" stroke="rgb(0,0,0)" />
  <text fill="rgb(0,0,0)" font-family="sans-serif" font-size="11" font-style="normal" font-weight="normal" text-anchor="middle" textLength="90" x="448" y="266">Sequence Number</text>
  <rect fill="rgb(255,255,255)" height="40" stroke="rgb(255,255,255)" width="768" x="64" y="280" />
  <path d="M 64 280 L 832 280" fill="none" stroke="rgb(0,0,0)" />
  <path d="M 832 280 L 832 320" fill="none" stroke="rgb(0,0,0)" />
  <path d="M 832 320 L 64 320" fill="none" stroke="rgb(0,0,0)" />
  <path d="M 64 320 L 64 280" fill="none" stroke="rgb(0,0,0)" />
  <text fill="rgb(0,0,0)" font-family="sans-serif" font-size="11" font-style="normal" font-weight="normal" text-anchor="middle" textLength="66" x="448" y="306">00 00 01 20</text>
  <rect fill="rgb(255,255,255)" height="40" stroke="rgb(255,255,255)" width="768" x="64" y="320" />
  <path d="M 64 320 L 832 320" fill="none" stroke="rgb(0,0,0)" />
  <path d="M 832 320 L 832 360" fill="none" stroke="rgb(0,0,0)" />
  <path d="M 832 360 L 64 360" fill="none" stroke="rgb(0,0,0)" />
  <path d="M 64 360 L 64 320" fill="none" stroke="rgb(0,0,0)" />
  <text fill="rgb(0,0,0)" font-family="sans-serif" font-size="11" font-style="normal" font-weight="normal" text-anchor="middle" textLength="66" x="448" y="346">36 00 00 01</text>
  <rect fill="rgb(255,255,255)" height="40" stroke="rgb(255,255,255)" width="768" x="64" y="360" />
  <path d="M 64 360 L 832 360" fill="none" stroke="rgb(0,0,0)" />
  <path d="M 832 360 L 832 400" fill="none" stroke="rgb(0,0,0)" />
  <path d="M 832 400 L 64 400" fill="none" stroke="rgb(0,0,0)" />
  <path d="M 64 400 L 64 360" fill="none" stroke="rgb(0,0,0)" />
  <text fill="rgb(0,0,0)" font-family="sans-serif" font-size="11" font-style="normal" font-weight="normal" text-anchor="middle" textLength="66" x="448" y="386">1d 00 04 00</text>
  <rect fill="rgb(255,255,255)" height="40" stroke="rgb(255,255,255)" width="768" x="64" y="400" />
  <path d="M 64 400 L 832 400" fill="none" stroke="rgb(0,0,0)" />
  <path d="M 832 400 L 832 440" fill="none" stroke="rgb(0,0,0)" />
  <path d="M 832 440 L 64 440" fill="none" stroke="rgb(0,0,0)" />
  <path d="M 64 440 L 64 400" fill="none" stroke="rgb(0,0,0)" />
  <text fill="rgb(0,0,0)" font-family="sans-serif" font-size="11" font-style="normal" font-weight="normal" text-anchor="middle" textLength="66" x="448" y="426">00 00 00 00</text>
  <rect fill="rgb(255,255,255)" height="40" stroke="rgb(255,255,255)" width="768" x="64" y="440" />
  <path d="M 64 440 L 832 440" fill="none" stroke="rgb(0,0,0)" />
  <path d="M 832 440 L 832 480" fill="none" stroke="rgb(0,0,0)" />
  <path d="M 832 480 L 64 480" fill="none" stroke="rgb(0,0,0)" />
  <path d="M 64 480 L 64 440" fill="none" stroke="rgb(0,0,0)" />
  <text fill="rgb(0,0,0)" font-family="sans-serif" font-size="11" font-style="normal" font-weight="normal" text-anchor="middle" textLength="66" x="448" y="466">a1 00 00 00</text>
  <rect fill="rgb(255,255,255)" height="40" stroke="rgb(255,255,255)" width="768" x="64" y="480" />
  <path d="M 64 480 L 832 480" fill="none" stroke="rgb(0,0,0)" />
  <path d="M 832 480 L 832 520" fill="none" stroke="rgb(0,0,0)" />
  <path d="M 832 520 L 64 520" fill="none" stroke="rgb(0,0,0)" />
  <path d="M 64 520 L 64 480" fill="none" stroke="rgb(0,0,0)" />
  <text fill="rgb(0,0,0)" font-family="sans-serif" font-size="11" font-style="normal" font-weight="normal" text-anchor="middle" textLength="66" x="448" y="506">d3 82 1f 00</text>
  <rect fill="rgb(255,255,255)" height="40" stroke="rgb(255,255,255)" width="192" x="64" y="520" />
  <path d="M 64 520 L 256 520" fill="none" stroke="rgb(0,0,0)" />
  <path d="M 256 520 L 256 560" fill="none" stroke="rgb(0,0,0)" />
  <path d="M 256 560 L 64 560" fill="none" stroke="rgb(0,0,0)" />
  <path d="M 64 560 L 64 520" fill="none" stroke="rgb(0,0,0)" />
  <text fill="rgb(0,0,0)" font-family="sans-serif" font-size="11" font-style="normal" font-weight="normal" text-anchor="middle" textLength="12" x="160" y="546">00</text>
  <rect fill="rgb(0,255,128)" height="40" stroke="rgb(0,255,128)" width="192" x="256" y="520" />
  <path d="M 256 520 L 448 520" fill="none" stroke="rgb(0,0,0)" />
  <path d="M 448 520 L 448 560" fill="none" stroke="rgb(0,0,0)" />
  <path d="M 448 560 L 256 560" fill="none" stroke="rgb(0,0,0)" />
  <path d="M 256 560 L 256 520" fill="none" stroke="rgb(0,0,0)" />
  <text fill="rgb(0,0,0)" font-family="sans-serif" font-size="11" font-style="normal" font-weight="normal" text-anchor="middle" textLength="156" x="352" y="539">Attribute Block Magic Byte</text>
  <text fill="rgb(0,0,0)" font-family="sans-serif" font-size="11" font-style="normal" font-weight="normal" text-anchor="middle" textLength="36" x="352" y="552">(0xA3)</text>
  <rect fill="rgb(0,255,128)" height="40" stroke="rgb(0,255,128)" width="192" x="448" y="520" />
  <path d="M 448 520 L 640 520" fill="none" stroke="rgb(0,0,0)" />
  <path d="M 640 520 L 640 560" fill="none" stroke="rgb(0,0,0)" />
  <path d="M 640 560 L 448 560" fill="none" stroke="rgb(0,0,0)" />
  <path d="M 448 560 L 448 520" fill="none" stroke="rgb(0,0,0)" />
  <text fill="rgb(0,0,0)" font-family="sans-serif" font-size="11" font-style="normal" font-weight="normal" text-anchor="middle" textLength="114" x="544" y="546">Attribute Id (Type)</text>
  <rect fill="rgb(0,255,128)" height="40" stroke="rgb(0,255,128)" width="192" x="640" y="520" />
  <path d="M 640 520 L 832 520" fill="none" stroke="rgb(0,0,0)" />
  <path d="M 832 520 L 832 560" fill="none" stroke="rgb(0,0,0)" />
  <path d="M 832 560 L 640 560" fill="none" stroke="rgb(0,0,0)" />
  <path d="M 640 560 L 640 520" fill="none" stroke="rgb(0,0,0)" />
  <text fill="rgb(0,0,0)" font-family="sans-serif" font-size="11" font-style="normal" font-weight="normal" text-anchor="middle" textLength="36" x="736" y="546">Format</text>
  <rect fill="rgb(0,255,128)" height="40" stroke="rgb(0,255,128)" width="192" x="64" y="560" />
  <path d="M 64 560 L 256 560" fill="none" stroke="rgb(0,0,0)" />
  <path d="M 256 560 L 256 600" fill="none" stroke="rgb(0,0,0)" />
  <path d="M 256 600 L 64 600" fill="none" stroke="rgb(0,0,0)" />
  <path d="M 64 600 L 64 560" fill="none" stroke="rgb(0,0,0)" />
  <text fill="rgb(0,0,0)" font-family="sans-serif" font-size="11" font-style="normal" font-weight="normal" text-anchor="middle" textLength="54" x="160" y="586">Data Type</text>
  <rect fill="rgb(0,255,128)" height="40" stroke="rgb(0,255,128)" width="192" x="256" y="560" />
  <path d="M 256 560 L 448 560" fill="none" stroke="rgb(0,0,0)" />
  <path d="M 448 560 L 448 600" fill="none" stroke="rgb(0,0,0)" />
  <path d="M 448 600 L 256 600" fill="none" stroke="rgb(0,0,0)" />
  <path d="M 256 600 L 256 560" fill="none" stroke="rgb(0,0,0)" />
  <text fill="rgb(0,0,0)" font-family="sans-serif" font-size="11" font-style="normal" font-weight="normal" text-anchor="middle" textLength="36" x="352" y="586">Length</text>
  <rect fill="rgb(0,255,128)" height="40" stroke="rgb(0,255,128)" width="192" x="64" y="640" />
  <path d="M 64 640 L 256 640" fill="none" stroke="rgb(0,0,0)" />
  <path d="M 256 640 L 256 680" fill="none" stroke="rgb(0,0,0)" />
  <path d="M 256 680 L 64 680" fill="none" stroke="rgb(0,0,0)" />
  <path d="M 64 680 L 64 640" fill="none" stroke="rgb(0,0,0)" stroke-dasharray="4" />
  <text fill="rgb(0,0,0)" font-family="sans-serif" font-size="11" font-style="normal" font-weight="normal" text-anchor="middle" textLength="90" x="160" y="666">Attribute Value</text>
  <rect fill="rgb(0,128,255)" height="40" stroke="rgb(0,128,255)" width="192" x="256" y="640" />
  <path d="M 256 640 L 448 640" fill="none" stroke="rgb(0,0,0)" />
  <path d="M 448 640 L 448 680" fill="none" stroke="rgb(0,0,0)" />
  <path d="M 448 680 L 256 680" fill="none" stroke="rgb(0,0,0)" />
  <path d="M 256 680 L 256 640" fill="none" stroke="rgb(0,0,0)" />
  <text fill="rgb(0,0,0)" font-family="sans-serif" font-size="11" font-style="normal" font-weight="normal" text-anchor="middle" textLength="156" x="352" y="659">Attribute Block Magic Byte</text>
  <text fill="rgb(0,0,0)" font-family="sans-serif" font-size="11" font-style="normal" font-weight="normal" text-anchor="middle" textLength="36" x="352" y="672">(0xA3)</text>
  <rect fill="rgb(0,128,255)" height="40" stroke="rgb(0,128,255)" width="192" x="448" y="640" />
  <path d="M 448 640 L 640 640" fill="none" stroke="rgb(0,0,0)" />
  <path d="M 640 640 L 640 680" fill="none" stroke="rgb(0,0,0)" />
  <path d="M 640 680 L 448 680" fill="none" stroke="rgb(0,0,0)" />
  <path d="M 448 680 L 448 640" fill="none" stroke="rgb(0,0,0)" />
  <text fill="rgb(0,0,0)" font-family="sans-serif" font-size="11" font-style="normal" font-weight="normal" text-anchor="middle" textLength="114" x="544" y="666">Attribute Id (Type)</text>
  <rect fill="rgb(0,128,255)" height="40" stroke="rgb(0,128,255)" width="192" x="640" y="640" />
  <path d="M 640 640 L 832 640" fill="none" stroke="rgb(0,0,0)" />
  <path d="M 832 640 L 832 680" fill="none" stroke="rgb(0,0,0)" />
  <path d="M 832 680 L 640 680" fill="none" stroke="rgb(0,0,0)" />
  <path d="M 640 680 L 640 640" fill="none" stroke="rgb(0,0,0)" />
  <text fill="rgb(0,0,0)" font-family="sans-serif" font-size="11" font-style="normal" font-weight="normal" text-anchor="middle" textLength="36" x="736" y="666">Format</text>
  <rect fill="rgb(0,128,255)" height="40" stroke="rgb(0,128,255)" width="192" x="64" y="680" />
  <path d="M 64 680 L 256 680" fill="none" stroke="rgb(0,0,0)" />
  <path d="M 256 680 L 256 720" fill="none" stroke="rgb(0,0,0)" />
  <path d="M 256 720 L 64 720" fill="none" stroke="rgb(0,0,0)" />
  <path d="M 64 720 L 64 680" fill="none" stroke="rgb(0,0,0)" />
  <text fill="rgb(0,0,0)" font-family="sans-serif" font-size="11" font-style="normal" font-weight="normal" text-anchor="middle" textLength="54" x="160" y="706">Data Type</text>
  <rect fill="rgb(0,128,255)" height="40" stroke="rgb(0,128,255)" width="192" x="256" y="680" />
  <path d="M 256 680 L 448 680" fill="none" stroke="rgb(0,0,0)" />
  <path d="M 448 680 L 448 720" fill="none" stroke="rgb(0,0,0)" />
  <path d="M 448 720 L 256 720" fill="none" stroke="rgb(0,0,0)" />
  <path d="M 256 720 L 256 680" fill="none" stroke="rgb(0,0,0)" />
  <text fill="rgb(0,0,0)" font-family="sans-serif" font-size="11" font-style="normal" font-weight="normal" text-anchor="middle" textLength="36" x="352" y="706">Length</text>
  <rect fill="rgb(0,128,255)" height="40" stroke="rgb(0,128,255)" width="192" x="64" y="760" />
  <path d="M 64 760 L 256 760" fill="none" stroke="rgb(0,0,0)" />
  <path d="M 256 760 L 256 800" fill="none" stroke="rgb(0,0,0)" />
  <path d="M 256 800 L 64 800" fill="none" stroke="rgb(0,0,0)" />
  <path d="M 64 800 L 64 760" fill="none" stroke="rgb(0,0,0)" stroke-dasharray="4" />
  <text fill="rgb(0,0,0)" font-family="sans-serif" font-size="11" font-style="normal" font-weight="normal" text-anchor="middle" textLength="90" x="160" y="786">Attribute Value</text>
  <rect fill="rgb(0,255,128)" height="40" stroke="rgb(0,255,128)" width="192" x="256" y="760" />
  <path d="M 256 760 L 448 760" fill="none" stroke="rgb(0,0,0)" />
  <path d="M 448 760 L 448 800" fill="none" stroke="rgb(0,0,0)" />
  <path d="M 448 800 L 256 800" fill="none" stroke="rgb(0,0,0)" />
  <path d="M 256 800 L 256 760" fill="none" stroke="rgb(0,0,0)" />
  <text fill="rgb(0,0,0)" font-family="sans-serif" font-size="11" font-style="normal" font-weight="normal" text-anchor="middle" textLength="156" x="352" y="779">Attribute Block Magic Byte</text>
  <text fill="rgb(0,0,0)" font-family="sans-serif" font-size="11" font-style="normal" font-weight="normal" text-anchor="middle" textLength="36" x="352" y="792">(0xA3)</text>
  <rect fill="rgb(0,255,128)" height="40" stroke="rgb(0,255,128)" width="192" x="448" y="760" />
  <path d="M 448 760 L 640 760" fill="none" stroke="rgb(0,0,0)" />
  <path d="M 640 760 L 640 800" fill="none" stroke="rgb(0,0,0)" />
  <path d="M 640 800 L 448 800" fill="none" stroke="rgb(0,0,0)" />
  <path d="M 448 800 L 448 760" fill="none" stroke="rgb(0,0,0)" />
  <text fill="rgb(0,0,0)" font-family="sans-serif" font-size="11" font-style="normal" font-weight="normal" text-anchor="middle" textLength="114" x="544" y="786">Attribute Id (Type)</text>
  <rect fill="rgb(0,255,128)" height="40" stroke="rgb(0,255,128)" width="192" x="640" y="760" />
  <path d="M 640 760 L 832 760" fill="none" stroke="rgb(0,0,0)" />
  <path d="M 832 760 L 832 800" fill="none" stroke="rgb(0,0,0)" />
  <path d="M 832 800 L 640 800" fill="none" stroke="rgb(0,0,0)" />
  <path d="M 640 800 L 640 760" fill="none" stroke="rgb(0,0,0)" />
  <text fill="rgb(0,0,0)" font-family="sans-serif" font-size="11" font-style="normal" font-weight="normal" text-anchor="middle" textLength="36" x="736" y="786">Format</text>
  <rect fill="rgb(0,255,128)" height="40" stroke="rgb(0,255,128)" width="192" x="64" y="800" />
  <path d="M 64 800 L 256 800" fill="none" stroke="rgb(0,0,0)" />
  <path d="M 256 800 L 256 840" fill="none" stroke="rgb(0,0,0)" />
  <path d="M 256 840 L 64 840" fill="none" stroke="rgb(0,0,0)" />
  <path d="M 64 840 L 64 800" fill="none" stroke="rgb(0,0,0)" />
  <text fill="rgb(0,0,0)" font-family="sans-serif" font-size="11" font-style="normal" font-weight="normal" text-anchor="middle" textLength="54" x="160" y="826">Data Type</text>
  <rect fill="rgb(0,255,128)" height="40" stroke="rgb(0,255,128)" width="192" x="256" y="800" />
  <path d="M 256 800 L 448 800" fill="none" stroke="rgb(0,0,0)" />
  <path d="M 448 800 L 448 840" fill="none" stroke="rgb(0,0,0)" />
  <path d="M 448 840 L 256 840" fill="none" stroke="rgb(0,0,0)" />
  <path d="M 256 840 L 256 800" fill="none" stroke="rgb(0,0,0)" />
  <text fill="rgb(0,0,0)" font-family="sans-serif" font-size="11" font-style="normal" font-weight="normal" text-anchor="middle" textLength="36" x="352" y="826">Length</text>
  <rect fill="rgb(0,255,128)" height="40" stroke="rgb(0,255,128)" width="192" x="64" y="880" />
  <path d="M 64 880 L 256 880" fill="none" stroke="rgb(0,0,0)" />
  <path d="M 256 880 L 256 920" fill="none" stroke="rgb(0,0,0)" />
  <path d="M 256 920 L 64 920" fill="none" stroke="rgb(0,0,0)" />
  <path d="M 64 920 L 64 880" fill="none" stroke="rgb(0,0,0)" stroke-dasharray="4" />
  <text fill="rgb(0,0,0)" font-family="sans-serif" font-size="11" font-style="normal" font-weight="normal" text-anchor="middle" textLength="90" x="160" y="906">Attribute Value</text>
  <rect fill="rgb(255,51,153)" height="40" stroke="rgb(255,51,153)" width="384" x="256" y="880" />
  <path d="M 256 880 L 640 880" fill="none" stroke="rgb(0,0,0)" />
  <path d="M 640 880 L 640 920" fill="none" stroke="rgb(0,0,0)" />
  <path d="M 640 920 L 256 920" fill="none" stroke="rgb(0,0,0)" />
  <path d="M 256 920 L 256 880" fill="none" stroke="rgb(0,0,0)" />
  <text fill="rgb(0,0,0)" font-family="sans-serif" font-size="11" font-style="normal" font-weight="normal" text-anchor="middle" textLength="102" x="448" y="906">Reserved (0x0000)</text>
  <rect fill="rgb(255,51,153)" height="40" stroke="rgb(255,51,153)" width="192" x="640" y="880" />
  <path d="M 640 880 L 832 880" fill="none" stroke="rgb(0,0,0)" />
  <path d="M 832 880 L 832 920" fill="none" stroke="rgb(0,0,0)" />
  <path d="M 832 920 L 640 920" fill="none" stroke="rgb(0,0,0)" />
  <path d="M 640 920 L 640 880" fill="none" stroke="rgb(0,0,0)" />
  <text fill="rgb(0,0,0)" font-family="sans-serif" font-size="11" font-style="normal" font-weight="normal" text-anchor="middle" textLength="192" x="736" y="899">S7 Comm Plus Protocol Magic Byte</text>
  <text fill="rgb(0,0,0)" font-family="sans-serif" font-size="11" font-style="normal" font-weight="normal" text-anchor="middle" textLength="36" x="736" y="912">(0x72)</text>
  <rect fill="rgb(255,51,153)" height="40" stroke="rgb(255,51,153)" width="192" x="64" y="920" />
  <path d="M 64 920 L 256 920" fill="none" stroke="rgb(0,0,0)" />
  <path d="M 256 920 L 256 960" fill="none" stroke="rgb(0,0,0)" />
  <path d="M 256 960 L 64 960" fill="none" stroke="rgb(0,0,0)" />
  <path d="M 64 960 L 64 920" fill="none" stroke="rgb(0,0,0)" />
  <text fill="rgb(0,0,0)" font-family="sans-serif" font-size="11" font-style="normal" font-weight="normal" text-anchor="middle" textLength="84" x="160" y="946">Version (0x01)</text>
  <rect fill="rgb(255,51,153)" height="40" stroke="rgb(255,51,153)" width="384" x="256" y="920" />
  <path d="M 256 920 L 640 920" fill="none" stroke="rgb(0,0,0)" />
  <path d="M 640 920 L 640 960" fill="none" stroke="rgb(0,0,0)" />
  <path d="M 640 960 L 256 960" fill="none" stroke="rgb(0,0,0)" />
  <path d="M 256 960 L 256 920" fill="none" stroke="rgb(0,0,0)" />
  <text fill="rgb(0,0,0)" font-family="sans-serif" font-size="11" font-style="normal" font-weight="normal" text-anchor="middle" textLength="102" x="448" y="946">Reserved (0x0000)</text>
  <rect fill="rgb(0,255,128)" height="40" stroke="rgb(0,255,128)" width="384" x="448" y="560" />
  <path d="M 448 560 L 832 560" fill="none" stroke="rgb(0,0,0)" />
  <path d="M 832 560 L 832 600" fill="none" stroke="rgb(0,0,0)" stroke-dasharray="4" />
  <path d="M 832 600 L 448 600" fill="none" stroke="rgb(0,0,0)" />
  <path d="M 448 600 L 448 560" fill="none" stroke="rgb(0,0,0)" />
  <text fill="rgb(0,0,0)" font-family="sans-serif" font-size="11" font-style="normal" font-weight="normal" text-anchor="middle" textLength="90" x="640" y="586">Attribute Value</text>
  <rect fill="rgb(0,255,128)" height="40" stroke="rgb(0,255,128)" width="768" x="64" y="600" />
  <path d="M 64 600 L 832 600" fill="none" stroke="rgb(0,0,0)" />
  <path d="M 832 600 L 832 640" fill="none" stroke="rgb(0,0,0)" stroke-dasharray="4" />
  <path d="M 832 640 L 64 640" fill="none" stroke="rgb(0,0,0)" />
  <path d="M 64 640 L 64 600" fill="none" stroke="rgb(0,0,0)" stroke-dasharray="4" />
  <text fill="rgb(0,0,0)" font-family="sans-serif" font-size="11" font-style="normal" font-weight="normal" text-anchor="middle" textLength="90" x="448" y="626">Attribute Value</text>
  <rect fill="rgb(0,128,255)" height="40" stroke="rgb(0,128,255)" width="384" x="448" y="680" />
  <path d="M 448 680 L 832 680" fill="none" stroke="rgb(0,0,0)" />
  <path d="M 832 680 L 832 720" fill="none" stroke="rgb(0,0,0)" stroke-dasharray="4" />
  <path d="M 832 720 L 448 720" fill="none" stroke="rgb(0,0,0)" />
  <path d="M 448 720 L 448 680" fill="none" stroke="rgb(0,0,0)" />
  <text fill="rgb(0,0,0)" font-family="sans-serif" font-size="11" font-style="normal" font-weight="normal" text-anchor="middle" textLength="90" x="640" y="706">Attribute Value</text>
  <rect fill="rgb(0,128,255)" height="40" stroke="rgb(0,128,255)" width="768" x="64" y="720" />
  <path d="M 64 720 L 832 720" fill="none" stroke="rgb(0,0,0)" />
  <path d="M 832 720 L 832 760" fill="none" stroke="rgb(0,0,0)" stroke-dasharray="4" />
  <path d="M 832 760 L 64 760" fill="none" stroke="rgb(0,0,0)" />
  <path d="M 64 760 L 64 720" fill="none" stroke="rgb(0,0,0)" stroke-dasharray="4" />
  <text fill="rgb(0,0,0)" font-family="sans-serif" font-size="11" font-style="normal" font-weight="normal" text-anchor="middle" textLength="90" x="448" y="746">Attribute Value</text>
  <rect fill="rgb(0,255,128)" height="40" stroke="rgb(0,255,128)" width="384" x="448" y="800" />
  <path d="M 448 800 L 832 800" fill="none" stroke="rgb(0,0,0)" />
  <path d="M 832 800 L 832 840" fill="none" stroke="rgb(0,0,0)" stroke-dasharray="4" />
  <path d="M 832 840 L 448 840" fill="none" stroke="rgb(0,0,0)" />
  <path d="M 448 840 L 448 800" fill="none" stroke="rgb(0,0,0)" />
  <text fill="rgb(0,0,0)" font-family="sans-serif" font-size="11" font-style="normal" font-weight="normal" text-anchor="middle" textLength="90" x="640" y="826">Attribute Value</text>
  <rect fill="rgb(0,255,128)" height="40" stroke="rgb(0,255,128)" width="768" x="64" y="840" />
  <path d="M 64 840 L 832 840" fill="none" stroke="rgb(0,0,0)" />
  <path d="M 832 840 L 832 880" fill="none" stroke="rgb(0,0,0)" stroke-dasharray="4" />
  <path d="M 832 880 L 64 880" fill="none" stroke="rgb(0,0,0)" />
  <path d="M 64 880 L 64 840" fill="none" stroke="rgb(0,0,0)" stroke-dasharray="4" />
  <text fill="rgb(0,0,0)" font-family="sans-serif" font-size="11" font-style="normal" font-weight="normal" text-anchor="middle" textLength="90" x="448" y="866">Attribute Value</text>
</svg>
